<svg width="20" height="20" viewBox="0 0 20 20" fill="none" xmlns="http://www.w3.org/2000/svg">
<path fill-rule="evenodd" clip-rule="evenodd" d="M4.16699 13.5417C4.51217 13.5417 4.79199 13.8215 4.79199 14.1667V15.8333C4.79199 15.9484 4.88527 16.0417 5.00033 16.0417H15.0003C15.1154 16.0417 15.2087 15.9484 15.2087 15.8333V14.1667C15.2087 13.8215 15.4885 13.5417 15.8337 13.5417C16.1788 13.5417 16.4587 13.8215 16.4587 14.1667V15.8333C16.4587 16.6387 15.8057 17.2917 15.0003 17.2917H5.00033C4.19491 17.2917 3.54199 16.6387 3.54199 15.8333V14.1667C3.54199 13.8215 3.82181 13.5417 4.16699 13.5417Z" fill="#000005"/>
<path d="M8.94862 3.125C8.51996 3.125 8.16238 3.4526 8.12495 3.87962C7.99691 5.34022 7.97433 6.80799 8.05731 8.27154C7.85149 8.28291 7.64575 8.29609 7.4401 8.31108L6.19884 8.40156C5.72026 8.43645 5.45273 8.97008 5.7111 9.37444C6.59613 10.7595 7.73652 11.9636 9.07147 12.9226L9.56876 13.2798C9.82668 13.4651 10.1741 13.4651 10.432 13.2798L10.9293 12.9226C12.2642 11.9636 13.4046 10.7595 14.2896 9.37444C14.548 8.97008 14.2805 8.43645 13.8019 8.40156L12.5606 8.31108C12.355 8.29609 12.1493 8.28291 11.9434 8.27154C12.0264 6.80799 12.0038 5.34022 11.8758 3.87962C11.8384 3.4526 11.4808 3.125 11.0521 3.125H8.94862Z" fill="#000005"/>
</svg>
