<svg width="20" height="20" viewBox="0 0 20 20" fill="none" xmlns="http://www.w3.org/2000/svg">
<path d="M12.2324 4.23265C12.7013 3.76375 13.3373 3.50032 14.0004 3.50032C14.6636 3.50032 15.2995 3.76375 15.7684 4.23265C16.2373 4.70155 16.5008 5.33752 16.5008 6.00065C16.5008 6.66378 16.2373 7.29975 15.7684 7.76865L14.5434 8.99265C14.4069 9.13417 14.3314 9.32366 14.3332 9.5203C14.335 9.71695 14.4139 9.90502 14.5531 10.044C14.6922 10.183 14.8803 10.2618 15.077 10.2634C15.2736 10.265 15.463 10.1893 15.6044 10.0527L16.8284 8.82865C17.5571 8.07424 17.9602 7.06383 17.9511 6.01505C17.942 4.96626 17.5213 3.96301 16.7797 3.22138C16.0381 2.47975 15.0348 2.05907 13.986 2.04996C12.9372 2.04084 11.9268 2.44402 11.1724 3.17265L8.17243 6.17265C7.78277 6.56234 7.47784 7.02835 7.27676 7.54143C7.07568 8.05452 6.98279 8.60362 7.00392 9.1543C7.02504 9.70497 7.15973 10.2453 7.39953 10.7415C7.63932 11.2377 7.97906 11.679 8.39743 12.0377C8.54875 12.164 8.74372 12.2257 8.94016 12.2093C9.13661 12.193 9.31874 12.1 9.44714 11.9505C9.57555 11.8009 9.63991 11.6068 9.6263 11.4101C9.61269 11.2135 9.52221 11.0301 9.37443 10.8997C9.11264 10.6756 8.9 10.3998 8.74988 10.0896C8.59975 9.7794 8.51537 9.44153 8.50204 9.09719C8.4887 8.75284 8.5467 8.40946 8.67239 8.08859C8.79808 7.76773 8.98875 7.47632 9.23243 7.23265L12.2324 4.23265Z" fill="#4848ED"/>
<path d="M11.6033 7.96333C11.452 7.837 11.257 7.77532 11.0606 7.79164C10.8641 7.80795 10.682 7.90095 10.5536 8.05052C10.4252 8.20008 10.3608 8.39419 10.3745 8.59084C10.3881 8.78749 10.4785 8.97088 10.6263 9.10133C10.8881 9.32543 11.1007 9.60122 11.2509 9.91141C11.401 10.2216 11.4854 10.5595 11.4987 10.9038C11.512 11.2481 11.454 11.5915 11.3284 11.9124C11.2027 12.2333 11.012 12.5247 10.7683 12.7683L7.76832 15.7683C7.29942 16.2372 6.66345 16.5007 6.00032 16.5007C5.3372 16.5007 4.70123 16.2372 4.23232 15.7683C3.76342 15.2994 3.5 14.6635 3.5 14.0003C3.5 13.3372 3.76342 12.7012 4.23232 12.2323L5.45732 11.0083C5.59388 10.8668 5.66939 10.6773 5.66758 10.4807C5.66578 10.284 5.58682 10.096 5.4477 9.95697C5.30857 9.81798 5.12043 9.73919 4.92378 9.73758C4.72713 9.73596 4.53771 9.81165 4.39632 9.94833L3.17232 11.1723C2.79028 11.5413 2.48556 11.9827 2.27592 12.4707C2.06628 12.9587 1.95594 13.4836 1.95132 14.0147C1.94671 14.5458 2.04791 15.0726 2.24904 15.5642C2.45016 16.0557 2.74717 16.5023 3.12274 16.8779C3.49832 17.2535 3.94492 17.5505 4.43651 17.7516C4.92809 17.9527 5.45481 18.054 5.98593 18.0493C6.51705 18.0447 7.04193 17.9344 7.52994 17.7247C8.01796 17.5151 8.45934 17.2104 8.82832 16.8283L11.8283 13.8283C12.218 13.4386 12.5229 12.9726 12.724 12.4596C12.9251 11.9465 13.018 11.3974 12.9968 10.8467C12.9757 10.296 12.841 9.75564 12.6012 9.25947C12.3614 8.7633 12.0217 8.32203 11.6033 7.96333Z" fill="#4848ED"/>
</svg>
