<svg width="14" height="7" viewBox="0 0 14 7" fill="none" xmlns="http://www.w3.org/2000/svg">
<path d="M6.99961 0.6666C7.19432 0.666219 7.38301 0.734032 7.53294 0.858266L12.5329 5.02493C12.7031 5.16638 12.8101 5.36964 12.8305 5.59C12.8508 5.81035 12.7827 6.02975 12.6413 6.19993C12.4998 6.37011 12.2966 6.47713 12.0762 6.49745C11.8559 6.51777 11.6365 6.44972 11.4663 6.30827L6.99961 2.57493L2.53294 6.17493C2.4477 6.24415 2.34962 6.29585 2.24434 6.32704C2.13906 6.35823 2.02865 6.36831 1.91946 6.3567C1.81027 6.34508 1.70445 6.312 1.60808 6.25935C1.51172 6.20671 1.42671 6.13554 1.35794 6.04993C1.28162 5.96425 1.22383 5.86373 1.18816 5.75467C1.1525 5.6456 1.13975 5.53035 1.1507 5.41613C1.16166 5.30191 1.19608 5.19119 1.25181 5.09089C1.30755 4.99059 1.3834 4.90289 1.47461 4.83327L6.47461 0.808267C6.62884 0.70367 6.81369 0.653791 6.99961 0.6666Z" fill="white" stroke="white"/>
</svg>
