<svg width="14" height="14" viewBox="0 0 14 14" fill="none" xmlns="http://www.w3.org/2000/svg">
<path fill-rule="evenodd" clip-rule="evenodd" d="M10.5561 0C9.64268 0 8.76671 0.362842 8.12084 1.0087L4.05916 5.07039C2.19371 6.93584 0.870309 9.27321 0.230464 11.8326L0.0342053 12.6176C-0.169347 13.4318 0.568164 14.1693 1.38237 13.9658L2.16741 13.7695C4.72679 13.1297 7.06416 11.8063 8.92961 9.94084L12.9913 5.87916C13.6372 5.23329 14 4.35732 14 3.44393C14 1.5419 12.4581 0 10.5561 0ZM9.38881 4.61119C10.0105 5.23293 10.7313 5.49777 11.2659 5.40473L11.8914 4.77927C12.2456 4.42511 12.4445 3.94478 12.4445 3.44393C12.4445 2.40097 11.599 1.55548 10.5561 1.55548C10.0552 1.55548 9.57489 1.75444 9.22073 2.10859L8.59527 2.73405C8.50223 3.26868 8.76707 3.98946 9.38881 4.61119Z" fill="white"/>
</svg>
